<svg width="24" height="30" viewBox="0 0 24 30" fill="none" xmlns="http://www.w3.org/2000/svg">
<path fill-rule="evenodd" clip-rule="evenodd" d="M21.0724 2.17565C21.355 2.08157 21.6553 2.05272 21.9506 2.09128C22.246 2.12983 22.5288 2.23479 22.7778 2.39827C23.0269 2.56175 23.2356 2.7795 23.3884 3.03519C23.5413 3.29088 23.6342 3.57787 23.6603 3.87461L23.6681 4.04819V8.76241C23.6679 9.27835 23.516 9.78284 23.2312 10.2131C22.9464 10.6433 22.5414 10.9802 22.0665 11.182L21.8692 11.2569L15.7783 13.2886V22.2029L15.7717 22.4817C15.7105 23.7729 15.2282 25.0085 14.3985 25.9998C13.5688 26.991 12.4374 27.6833 11.1771 27.9709C9.91683 28.2584 8.59708 28.1253 7.41956 27.592C6.24204 27.0587 5.27155 26.1545 4.65641 25.0176C4.04128 23.8807 3.81535 22.5736 4.01316 21.2962C4.21096 20.0187 4.82162 18.8412 5.7518 17.9436C6.68198 17.0459 7.88049 16.4776 9.16416 16.3254C10.4478 16.1732 11.746 16.4455 12.8603 17.1007L13.1483 17.2822V7.65914C13.1486 6.87235 13.3841 6.10363 13.8246 5.45174C14.2652 4.79985 14.8906 4.29458 15.6205 4.00085L15.8453 3.91669L21.0724 2.17565ZM9.86083 18.9154C9.21984 18.9155 8.59287 19.103 8.05705 19.4548C7.52123 19.8066 7.09994 20.3074 6.84503 20.8955C6.59012 21.4836 6.5127 22.1334 6.62229 22.765C6.73189 23.3965 7.02373 23.9823 7.46189 24.4501C7.90006 24.918 8.46544 25.2475 9.08846 25.3982C9.71148 25.5489 10.365 25.5142 10.9685 25.2983C11.5721 25.0824 12.0993 24.6948 12.4854 24.1832C12.8715 23.6715 13.0997 23.0581 13.1417 22.4185L13.1483 22.2029C13.1483 21.331 12.8019 20.4948 12.1854 19.8783C11.5689 19.2618 10.7327 18.9154 9.86083 18.9154ZM5.25839 0.505615C5.53269 0.505725 5.80009 0.591608 6.02315 0.751241C6.24621 0.910874 6.41377 1.13627 6.50237 1.39586L6.67332 1.89293C6.86793 2.46331 7.19064 2.98151 7.61667 3.40778C8.04271 3.83404 8.56074 4.15703 9.13102 4.35195L9.62808 4.52158C9.88739 4.61044 10.1124 4.77811 10.2718 5.00115C10.4311 5.22419 10.5168 5.49145 10.5168 5.76556C10.5168 6.03967 10.4311 6.30693 10.2718 6.52997C10.1124 6.75301 9.88739 6.92068 9.62808 7.00953L9.13102 7.18048C8.56064 7.3751 8.04243 7.6978 7.61617 8.12384C7.1899 8.54988 6.86692 9.06791 6.672 9.63819L6.50237 10.1353C6.41351 10.3946 6.24584 10.6196 6.0228 10.779C5.79976 10.9383 5.5325 11.024 5.25839 11.024C4.98428 11.024 4.71703 10.9383 4.49399 10.779C4.27095 10.6196 4.10328 10.3946 4.01442 10.1353L3.84347 9.63819C3.64886 9.06781 3.32615 8.5496 2.90012 8.12334C2.47408 7.69707 1.95605 7.37408 1.38577 7.17917L0.888709 7.00953C0.629401 6.92068 0.404343 6.75301 0.245001 6.52997C0.0856592 6.30693 0 6.03967 0 5.76556C0 5.49145 0.0856592 5.22419 0.245001 5.00115C0.404343 4.77811 0.629401 4.61044 0.888709 4.52158L1.38577 4.35063C1.95615 4.15602 2.47436 3.83331 2.90062 3.40727C3.32688 2.98124 3.64987 2.4632 3.84479 1.89293L4.01442 1.39586C4.10302 1.13627 4.27058 0.910874 4.49364 0.751241C4.7167 0.591608 4.9841 0.505725 5.25839 0.505615ZM21.0382 4.95947L16.6777 6.41385C16.4407 6.49282 16.2311 6.63766 16.0735 6.83142C15.9158 7.02517 15.8166 7.25983 15.7875 7.50791L15.7783 7.66045V10.5153L21.0382 8.76241V4.95947ZM5.25839 4.70962C4.94725 5.10063 4.59254 5.4549 4.20115 5.76556C4.59389 6.07677 4.94631 6.42919 5.25839 6.82281C5.56961 6.43006 5.92202 6.07765 6.31564 5.76556C5.92417 5.45449 5.56946 5.10109 5.25839 4.70962Z" fill="#ECECEC"/>
</svg>
