<svg width="36" height="35" viewBox="0 0 36 35" fill="none" xmlns="http://www.w3.org/2000/svg">
<path d="M29.1001 16.9065L33.3604 12.2198C33.5827 11.9693 33.6972 11.6413 33.6792 11.3068C33.6612 10.9724 33.5122 10.6586 33.2643 10.4334C33.0165 10.2081 32.6899 10.0897 32.3553 10.1036C32.0206 10.1176 31.705 10.2629 31.4769 10.508L28.2076 14.1034L25.4714 5.5016C25.3089 4.98593 24.9859 4.53568 24.5494 4.21658C24.113 3.89747 23.586 3.72621 23.0453 3.72779H16.3367C15.796 3.72621 15.269 3.89747 14.8325 4.21658C14.3961 4.53568 14.0731 4.98593 13.9106 5.5016L5.81153 30.9553C5.69016 31.3369 5.66052 31.7417 5.725 32.1369C5.78949 32.532 5.94629 32.9064 6.18267 33.2296C6.41904 33.5528 6.72832 33.8156 7.08538 33.9968C7.44243 34.178 7.8372 34.2724 8.23759 34.2723H31.146C31.5463 34.2724 31.9411 34.178 32.2982 33.9968C32.6552 33.8156 32.9645 33.5528 33.2009 33.2296C33.4373 32.9064 33.5941 32.532 33.6585 32.1369C33.723 31.7417 33.6934 31.3369 33.572 30.9553L29.1001 16.9065ZM28.7151 24.0908H22.568L27.1211 19.0828L28.7151 24.0908ZM16.3367 6.27317H23.0453L26.227 16.2797L19.1286 24.0908H10.6668L16.3367 6.27317ZM8.23759 31.7269L9.85708 26.6362H29.5249L31.146 31.7269H8.23759Z" fill="#ECECEC"/>
</svg>
