<svg width="31" height="32" viewBox="0 0 31 32" fill="none" xmlns="http://www.w3.org/2000/svg">
<path d="M15.8578 20.5C18.3431 20.5 20.3578 18.4853 20.3578 16C20.3578 13.5147 18.3431 11.5 15.8578 11.5C13.3725 11.5 11.3578 13.5147 11.3578 16C11.3578 18.4853 13.3725 20.5 15.8578 20.5Z" stroke="#ECECEC" stroke-width="2"/>
<path d="M18.5052 1.228C17.9547 1 17.2557 1 15.8577 1C14.4597 1 13.7607 1 13.2102 1.228C12.846 1.37877 12.5151 1.59984 12.2363 1.87859C11.9576 2.15733 11.7365 2.48827 11.5857 2.8525C11.4477 3.187 11.3922 3.5785 11.3712 4.147C11.3615 4.55789 11.2476 4.9596 11.0404 5.31453C10.8332 5.66947 10.5393 5.96604 10.1862 6.1765C9.82744 6.37716 9.42361 6.48351 9.01253 6.48561C8.60145 6.48771 8.19655 6.38548 7.83573 6.1885C7.33173 5.9215 6.96723 5.7745 6.60573 5.7265C5.81721 5.62281 5.01978 5.83646 4.38873 6.3205C3.91773 6.685 3.56673 7.2895 2.86773 8.5C2.16873 9.7105 1.81773 10.315 1.74123 10.9075C1.68968 11.2982 1.71561 11.6952 1.81753 12.0758C1.91945 12.4565 2.09537 12.8133 2.33523 13.126C2.55723 13.414 2.86773 13.6555 3.34923 13.9585C4.05873 14.404 4.51473 15.163 4.51473 16C4.51473 16.837 4.05873 17.596 3.34923 18.04C2.86773 18.3445 2.55573 18.586 2.33523 18.874C2.09537 19.1867 1.91945 19.5435 1.81753 19.9242C1.71561 20.3048 1.68968 20.7018 1.74123 21.0925C1.81923 21.6835 2.16873 22.2895 2.86623 23.5C3.56673 24.7105 3.91623 25.315 4.38873 25.6795C4.70139 25.9194 5.05823 26.0953 5.43889 26.1972C5.81955 26.2991 6.21655 26.325 6.60723 26.2735C6.96723 26.2255 7.33173 26.0785 7.83573 25.8115C8.19655 25.6145 8.60145 25.5123 9.01253 25.5144C9.42361 25.5165 9.82744 25.6228 10.1862 25.8235C10.9107 26.2435 11.3412 27.016 11.3712 27.853C11.3922 28.423 11.4462 28.813 11.5857 29.1475C11.7365 29.5117 11.9576 29.8427 12.2363 30.1214C12.5151 30.4002 12.846 30.6212 13.2102 30.772C13.7607 31 14.4597 31 15.8577 31C17.2557 31 17.9547 31 18.5052 30.772C18.8695 30.6212 19.2004 30.4002 19.4791 30.1214C19.7579 29.8427 19.979 29.5117 20.1297 29.1475C20.2677 28.813 20.3232 28.423 20.3442 27.853C20.3742 27.016 20.8047 26.242 21.5292 25.8235C21.888 25.6228 22.2919 25.5165 22.7029 25.5144C23.114 25.5123 23.5189 25.6145 23.8797 25.8115C24.3837 26.0785 24.7482 26.2255 25.1082 26.2735C25.4989 26.325 25.8959 26.2991 26.2766 26.1972C26.6572 26.0953 27.0141 25.9194 27.3267 25.6795C27.7992 25.3165 28.1487 24.7105 28.8477 23.5C29.5467 22.2895 29.8977 21.685 29.9742 21.0925C30.0258 20.7018 29.9999 20.3048 29.8979 19.9242C29.796 19.5435 29.6201 19.1867 29.3802 18.874C29.1582 18.586 28.8477 18.3445 28.3662 18.0415C28.0151 17.8276 27.724 17.5281 27.5202 17.1711C27.3164 16.814 27.2064 16.4111 27.2007 16C27.2007 15.163 27.6567 14.404 28.3662 13.96C28.8477 13.6555 29.1597 13.414 29.3802 13.126C29.6201 12.8133 29.796 12.4565 29.8979 12.0758C29.9999 11.6952 30.0258 11.2982 29.9742 10.9075C29.8962 10.3165 29.5467 9.7105 28.8492 8.5C28.1487 7.2895 27.7992 6.685 27.3267 6.3205C27.0141 6.08064 26.6572 5.90472 26.2766 5.8028C25.8959 5.70088 25.4989 5.67495 25.1082 5.7265C24.7482 5.7745 24.3837 5.9215 23.8782 6.1885C23.5176 6.38522 23.113 6.48729 22.7022 6.48519C22.2914 6.4831 21.8878 6.37689 21.5292 6.1765C21.1762 5.96604 20.8823 5.66947 20.6751 5.31453C20.4678 4.9596 20.354 4.55789 20.3442 4.147C20.3232 3.577 20.2692 3.187 20.1297 2.8525C19.979 2.48827 19.7579 2.15733 19.4791 1.87859C19.2004 1.59984 18.8695 1.37877 18.5052 1.228Z" stroke="#ECECEC" stroke-width="2"/>
</svg>
