<svg width="23" height="30" viewBox="0 0 23 30" fill="none" xmlns="http://www.w3.org/2000/svg">
<g clip-path="url(#clip0_60_1092)">
<path d="M23.0895 0.211425C22.9347 0.102592 22.7549 0.0326719 22.5659 0.00782238C22.377 -0.0170271 22.1847 0.00395632 22.0059 0.0689247L22.0136 0.0664247L7.85967 4.98892C7.63022 5.06838 7.43164 5.21555 7.29134 5.41012C7.15104 5.60469 7.07593 5.83707 7.07639 6.07517V22.1252C6.35297 21.7387 5.54187 21.5363 4.71761 21.5364C3.52135 21.4892 2.35317 21.9061 1.46963 22.6965C0.58609 23.4868 0.0574483 24.5866 -0.0012207 25.7564V25.7664C0.0551492 26.9396 0.583956 28.0432 1.46962 28.836C2.35529 29.6289 3.52578 30.0465 4.72528 29.9977H4.71633C5.9126 30.0449 7.0795 29.628 7.96304 28.8376C8.84658 28.0472 9.37522 26.9475 9.43389 25.7777V9.66392L21.2278 5.63517V16.8514C20.504 16.4659 19.6931 16.2639 18.869 16.2639H18.8677C17.6714 16.216 16.5043 16.6328 15.6208 17.4233C14.7373 18.2138 14.2091 19.314 14.1514 20.4839V20.4939C14.2075 21.6672 14.7362 22.771 15.6219 23.5639C16.5077 24.3568 17.6784 24.7744 18.8779 24.7252H18.869L19.0032 24.7277C20.0346 24.7281 21.0366 24.3913 21.85 23.7707C22.6633 23.1501 23.2413 22.2814 23.492 21.3027L23.4984 21.2714C23.5557 21.1367 23.5856 20.9923 23.5866 20.8464V1.15392C23.5868 0.969865 23.542 0.788426 23.4557 0.624855C23.3694 0.461283 23.2443 0.320359 23.0908 0.213925L23.0869 0.211425H23.0895Z" fill="#ECECEC"/>
</g>
<defs>
<clipPath id="clip0_60_1092">
<rect width="23" height="30" fill="white"/>
</clipPath>
</defs>
</svg>
