<svg width="30" height="30" viewBox="0 0 30 30" fill="none" xmlns="http://www.w3.org/2000/svg">
<path d="M7.5 6.60378C7.5 5.45284 7.89509 4.34904 8.59835 3.53521C9.30161 2.72137 10.2554 2.26416 11.25 2.26416H18.75C19.7446 2.26416 20.6984 2.72137 21.4016 3.53521C22.1049 4.34904 22.5 5.45284 22.5 6.60378V23.9623C22.5 25.1132 22.1049 26.217 21.4016 27.0309C20.6984 27.8447 19.7446 28.3019 18.75 28.3019H11.25C10.2554 28.3019 9.30161 27.8447 8.59835 27.0309C7.89509 26.217 7.5 25.1132 7.5 23.9623V6.60378ZM16.875 21.7925C16.875 21.217 16.6775 20.6651 16.3258 20.2582C15.9742 19.8513 15.4973 19.6227 15 19.6227C14.5027 19.6227 14.0258 19.8513 13.6742 20.2582C13.3225 20.6651 13.125 21.217 13.125 21.7925C13.125 22.3679 13.3225 22.9198 13.6742 23.3268C14.0258 23.7337 14.5027 23.9623 15 23.9623C15.4973 23.9623 15.9742 23.7337 16.3258 23.3268C16.6775 22.9198 16.875 22.3679 16.875 21.7925ZM3.38813 8.19643C3.50449 7.94207 3.52877 7.64463 3.45563 7.36956C3.38249 7.09448 3.21792 6.86429 2.99813 6.72963C2.77833 6.59497 2.52131 6.56687 2.2836 6.65151C2.0459 6.73615 1.84699 6.92659 1.73063 7.18095C0.592956 9.67858 -0.0010883 12.4597 1.49675e-06 15.283C1.49675e-06 18.2058 0.626251 20.9636 1.73063 23.3851C1.78824 23.5111 1.86673 23.6226 1.96161 23.7135C2.05649 23.8043 2.16591 23.8726 2.2836 23.9145C2.4013 23.9565 2.52498 23.9711 2.64758 23.9577C2.77018 23.9443 2.88929 23.9031 2.99813 23.8364C3.10696 23.7698 3.20338 23.6789 3.28188 23.5691C3.36038 23.4593 3.41942 23.3327 3.45563 23.1965C3.49185 23.0603 3.50453 22.9172 3.49294 22.7753C3.48136 22.6334 3.44574 22.4956 3.38813 22.3696C2.39344 20.1849 1.87407 17.7525 1.875 15.283C1.875 12.7227 2.4225 10.3098 3.38813 8.19643ZM28.2694 7.18095C28.153 6.92659 27.9541 6.73615 27.7164 6.65151C27.4787 6.56687 27.2217 6.59497 27.0019 6.72963C26.7821 6.86429 26.6175 7.09448 26.5444 7.36956C26.4712 7.64463 26.4955 7.94207 26.6119 8.19643C27.5775 10.3098 28.125 12.7205 28.125 15.283C28.125 17.8434 27.5775 20.2562 26.6119 22.3696C26.4955 22.624 26.4712 22.9214 26.5444 23.1965C26.6175 23.4716 26.7821 23.7018 27.0019 23.8364C27.2217 23.9711 27.4787 23.9992 27.7164 23.9145C27.9541 23.8299 28.153 23.6395 28.2694 23.3851C29.407 20.8875 30.0011 18.1064 30 15.283C30.0011 12.4597 29.407 9.67858 28.2694 7.18095ZM6.2625 11.3383C6.31482 11.2042 6.34303 11.0592 6.3454 10.9121C6.34777 10.765 6.32426 10.6189 6.2763 10.4826C6.22834 10.3463 6.15693 10.2228 6.06641 10.1195C5.97589 10.0161 5.86815 9.9352 5.74976 9.88157C5.63136 9.82795 5.50477 9.80275 5.3777 9.80752C5.25062 9.81228 5.12571 9.84691 5.01056 9.90929C4.89542 9.97168 4.79244 10.0605 4.70789 10.1704C4.62334 10.2803 4.55899 10.4089 4.51875 10.5485C4.01022 12.0576 3.74951 13.6633 3.75 15.283C3.75 16.9516 4.02188 18.5486 4.51875 20.0176C4.55899 20.1571 4.62334 20.2858 4.70789 20.3957C4.79244 20.5055 4.89542 20.5944 5.01056 20.6568C5.12571 20.7191 5.25062 20.7538 5.3777 20.7585C5.50477 20.7633 5.63136 20.7381 5.74976 20.6845C5.86815 20.6309 5.97589 20.5499 6.06641 20.4466C6.15693 20.3433 6.22834 20.2197 6.2763 20.0835C6.32426 19.9472 6.34777 19.8011 6.3454 19.654C6.34303 19.5069 6.31482 19.3618 6.2625 19.2277C5.83987 17.9702 5.62367 16.6324 5.625 15.283C5.625 13.89 5.85 12.5599 6.2625 11.3383ZM25.4812 10.5485C25.3823 10.295 25.2031 10.0951 24.9805 9.99021C24.7579 9.88528 24.5089 9.8833 24.2851 9.98468C24.0613 10.0861 23.8797 10.2831 23.7778 10.535C23.6758 10.7869 23.6614 11.0745 23.7375 11.3383C24.15 12.5599 24.375 13.89 24.375 15.283C24.375 16.676 24.15 18.0061 23.7375 19.2277C23.6614 19.4916 23.6758 19.7792 23.7778 20.0311C23.8797 20.283 24.0613 20.48 24.2851 20.5814C24.5089 20.6828 24.7579 20.6808 24.9805 20.5759C25.2031 20.4709 25.3823 20.2711 25.4812 20.0176C25.98 18.5486 26.25 16.9516 26.25 15.283C26.25 13.6144 25.9781 12.0175 25.4812 10.5485Z" fill="#D4D4D4" fill-opacity="0.9"/>
</svg>
